<?xml version="1.0" encoding="utf-8"?>
<!-- Generator: Adobe Illustrator 19.2.1, SVG Export Plug-In . SVG Version: 6.00 Build 0)  -->
<svg version="1.1" id="Calque_1" xmlns="http://www.w3.org/2000/svg" xmlns:xlink="http://www.w3.org/1999/xlink" x="0px" y="0px"
	 viewBox="0 0 283.5 283.5" style="enable-background:new 0 0 283.5 283.5;" xml:space="preserve">
<style type="text/css">
	.st0{fill:none;stroke:#000000;stroke-width:21.389;stroke-linecap:round;stroke-linejoin:round;stroke-miterlimit:10;}
</style>
<path class="st0" d="M141.7,85"/>
<path class="st0" d="M85,127.6"/>
<path d="M56.7,92.6H28.3c-4.1,0-7.5-3.4-7.5-7.5s3.4-7.5,7.5-7.5h28.3c4.1,0,7.5,3.4,7.5,7.5S60.8,92.6,56.7,92.6z"/>
<path d="M170.1,262.7c-1.5,0-2.9-0.4-4.2-1.3l-85-56.7c-3.4-2.3-4.4-7-2.1-10.4c2.3-3.4,7-4.4,10.4-2.1l73.4,48.9V42.4L89.2,91.3
	c-3.4,2.3-8.1,1.4-10.4-2.1c-2.3-3.4-1.4-8.1,2.1-10.4l85-56.7c2.3-1.5,5.3-1.7,7.7-0.4s4,3.8,4,6.6v226.8c0,2.8-1.5,5.3-4,6.6
	C172.5,262.4,171.3,262.7,170.1,262.7z"/>
<path d="M56.7,206H28.3c-4.1,0-7.5-3.4-7.5-7.5s3.4-7.5,7.5-7.5h28.3c4.1,0,7.5,3.4,7.5,7.5S60.8,206,56.7,206z"/>
<path d="M141.7,206c-2,0-3.9-0.8-5.3-2.2l-26.1-26.2H28.3c-4.1,0-7.5-3.4-7.5-7.5s3.4-7.5,7.5-7.5h85c2,0,3.9,0.8,5.3,2.2l15.5,15.5
	l0-77.2l-15.5,15.6c-1.4,1.4-3.3,2.2-5.3,2.2h-85c-4.1,0-7.5-3.4-7.5-7.5s3.4-7.5,7.5-7.5h81.9l26.1-26.2c2.1-2.2,5.4-2.8,8.2-1.6
	c2.8,1.2,4.6,3.9,4.6,6.9l0,113.5c0,3-1.8,5.8-4.6,6.9C143.7,205.8,142.7,206,141.7,206z"/>
<path d="M212.6,177.6c-1.7,0-3.3-0.6-4.7-1.7c-3.2-2.6-3.7-7.3-1.1-10.6c12.6-15.5,10-36.4,0.3-46.9c-2.8-3-2.6-7.8,0.4-10.6
	c3-2.8,7.8-2.6,10.6,0.4c13.9,15.1,18,44.8,0.3,66.5C216.9,176.7,214.8,177.6,212.6,177.6z"/>
<path d="M240.9,206c-1.7,0-3.4-0.6-4.8-1.8c-3.2-2.7-3.5-7.4-0.9-10.6c14.5-17.2,21.6-40.2,19.4-63.1c-1.6-17.1-8.3-31.5-18.4-39.6
	c-3.2-2.6-3.7-7.3-1.1-10.5c2.6-3.2,7.3-3.7,10.5-1.1c13.2,10.6,21.9,28.8,24,49.9c2.6,26.9-5.8,54-22.9,74.2
	C245.2,205.1,243.1,206,240.9,206z"/>
</svg>
