<?xml version="1.0" encoding="utf-8"?>
<!-- Generator: Adobe Illustrator 19.2.1, SVG Export Plug-In . SVG Version: 6.00 Build 0)  -->
<svg version="1.1" id="Calque_1" xmlns="http://www.w3.org/2000/svg" xmlns:xlink="http://www.w3.org/1999/xlink" x="0px" y="0px"
	 viewBox="0 0 283.5 283.5" style="enable-background:new 0 0 283.5 283.5;" xml:space="preserve">
<path d="M196.8,206.4c-2,0-4.1-0.8-5.6-2.4c-3-3.1-3-8.1,0.1-11.1l52.6-51.5l-51-50.6c-3.1-3.1-3.1-8,0-11.1c3.1-3.1,8-3.1,11.1,0
	l56.7,56.3c1.5,1.5,2.3,3.5,2.3,5.6c0,2.1-0.9,4.1-2.4,5.6l-58.3,57.1C200.7,205.7,198.8,206.4,196.8,206.4z"/>
<path d="M198,164.4c-2,0-4-0.8-5.5-2.3c-3.1-3.1-3.1-8,0-11.1l9.1-9.1l-9.2-9.5c-3-3.1-2.9-8.1,0.2-11.1c3.1-3,8.1-2.9,11.1,0.2
	l14.6,15c3,3.1,3,8-0.1,11l-14.6,14.6C202,163.6,200,164.4,198,164.4z"/>
<path d="M169.7,134.8H28c-4.3,0-7.8-3.5-7.8-7.8s3.5-7.8,7.8-7.8h141.7c4.3,0,7.8,3.5,7.8,7.8S174,134.8,169.7,134.8z"/>
<path d="M169.7,163.9H28c-4.3,0-7.8-3.5-7.8-7.8s3.5-7.8,7.8-7.8h141.7c4.3,0,7.8,3.5,7.8,7.8S174,163.9,169.7,163.9z"/>
<g>
</g>
<g>
</g>
<g>
</g>
<g>
</g>
<g>
</g>
<g>
</g>
</svg>
