<?xml version="1.0" encoding="utf-8"?>
<!-- Generator: Adobe Illustrator 19.2.1, SVG Export Plug-In . SVG Version: 6.00 Build 0)  -->
<svg version="1.1" id="Calque_1" xmlns="http://www.w3.org/2000/svg" xmlns:xlink="http://www.w3.org/1999/xlink" x="0px" y="0px"
	 viewBox="0 0 283.5 283.5" style="enable-background:new 0 0 283.5 283.5;" xml:space="preserve">
<path d="M255.1,120.9h-56.7c-4.1,0-7.5-3.4-7.5-7.5s3.4-7.5,7.5-7.5h49.2v-70H35.8v70H85c4.1,0,7.5,3.4,7.5,7.5s-3.4,7.5-7.5,7.5
	H28.3c-4.1,0-7.5-3.4-7.5-7.5v-85c0-4.1,3.4-7.5,7.5-7.5h226.8c4.1,0,7.5,3.4,7.5,7.5v85C262.6,117.6,259.3,120.9,255.1,120.9z"/>
<path d="M226.8,92.6h-42.5c-4.1,0-7.5-3.4-7.5-7.5s3.4-7.5,7.5-7.5h42.5c4.1,0,7.5,3.4,7.5,7.5S230.9,92.6,226.8,92.6z"/>
<path d="M226.8,64.2H56.7c-4.1,0-7.5-3.4-7.5-7.5s3.4-7.5,7.5-7.5h170.1c4.1,0,7.5,3.4,7.5,7.5S230.9,64.2,226.8,64.2z"/>
<path d="M99.2,92.6H56.7c-4.1,0-7.5-3.4-7.5-7.5s3.4-7.5,7.5-7.5h42.5c4.1,0,7.5,3.4,7.5,7.5S103.4,92.6,99.2,92.6z"/>
<path d="M85,262.7c-4.1,0-7.5-3.4-7.5-7.5V141.8c0-4.1,3.4-7.5,7.5-7.5h14.2c4.1,0,7.5,3.4,7.5,7.5s-3.4,7.5-7.5,7.5h-6.7v105.9
	C92.5,259.3,89.2,262.7,85,262.7z"/>
<path d="M198.4,262.7c-4.1,0-7.5-3.4-7.5-7.5V149.3h-6.7c-4.1,0-7.5-3.4-7.5-7.5s3.4-7.5,7.5-7.5h14.2c4.1,0,7.5,3.4,7.5,7.5v113.4
	C205.9,259.3,202.6,262.7,198.4,262.7z"/>
<path d="M113.4,262.7c-4.1,0-7.5-3.4-7.5-7.5v-85c0-4.1,3.4-7.5,7.5-7.5s7.5,3.4,7.5,7.5v85C120.9,259.3,117.5,262.7,113.4,262.7z"
	/>
<path d="M170.1,262.7c-4.1,0-7.5-3.4-7.5-7.5v-85c0-4.1,3.4-7.5,7.5-7.5s7.5,3.4,7.5,7.5v85C177.6,259.3,174.2,262.7,170.1,262.7z"
	/>
<path d="M155.9,145.5c-2.6,0-5.1-1.3-6.5-3.7c-2.1-3.6-0.8-8.2,2.7-10.2c6.4-3.7,10.4-10.6,10.4-18.1c0-11.5-9.4-20.8-20.8-20.8
	s-20.8,9.4-20.8,20.8c0,7.4,4,14.3,10.4,18.1c3.6,2.1,4.8,6.7,2.7,10.2s-6.7,4.8-10.2,2.7c-11.1-6.4-17.9-18.3-17.9-31
	c0-19.8,16.1-35.8,35.8-35.8c19.8,0,35.8,16.1,35.8,35.8c0,12.8-6.9,24.7-17.9,31C158.5,145.2,157.2,145.5,155.9,145.5z"/>
</svg>
