<?xml version="1.0" encoding="utf-8"?>
<!-- Generator: Adobe Illustrator 19.2.1, SVG Export Plug-In . SVG Version: 6.00 Build 0)  -->
<svg version="1.1" id="Calque_1" xmlns="http://www.w3.org/2000/svg" xmlns:xlink="http://www.w3.org/1999/xlink" x="0px" y="0px"
	 viewBox="0 0 283.5 283.5" style="enable-background:new 0 0 283.5 283.5;" xml:space="preserve">
<path d="M28.3,149.3c-1.4,0-2.7-0.4-3.9-1.1c-2.2-1.4-3.6-3.8-3.6-6.4V28.4c0-4.1,3.4-7.5,7.5-7.5h170.1c4.1,0,7.5,3.4,7.5,7.5v85
	c0,4.1-3.4,7.5-7.5,7.5H86.8l-55.1,27.6C30.6,149,29.5,149.3,28.3,149.3z M35.8,35.9v93.8l45.8-22.9c1-0.5,2.2-0.8,3.4-0.8h105.9
	v-70H35.8z"/>
<path d="M170.1,92.6H56.7c-4.1,0-7.5-3.4-7.5-7.5s3.4-7.5,7.5-7.5h113.4c4.1,0,7.5,3.4,7.5,7.5S174.2,92.6,170.1,92.6z"/>
<path d="M170.1,64.2H56.7c-4.1,0-7.5-3.4-7.5-7.5s3.4-7.5,7.5-7.5h113.4c4.1,0,7.5,3.4,7.5,7.5S174.2,64.2,170.1,64.2z"/>
<path d="M255.1,262.7c-1.1,0-2.3-0.3-3.4-0.8l-55.1-27.6H85c-4.1,0-7.5-3.4-7.5-7.5v-85c0-4.1,3.4-7.5,7.5-7.5h170.1
	c4.1,0,7.5,3.4,7.5,7.5v113.4c0,2.6-1.3,5-3.6,6.4C257.9,262.3,256.5,262.7,255.1,262.7z M92.5,219.3h105.9c1.2,0,2.3,0.3,3.4,0.8
	l45.8,22.9v-93.8H92.5V219.3z"/>
<path d="M226.8,177.6H113.4c-4.1,0-7.5-3.4-7.5-7.5s3.4-7.5,7.5-7.5h113.4c4.1,0,7.5,3.4,7.5,7.5S230.9,177.6,226.8,177.6z"/>
<path d="M226.8,206H113.4c-4.1,0-7.5-3.4-7.5-7.5s3.4-7.5,7.5-7.5h113.4c4.1,0,7.5,3.4,7.5,7.5S230.9,206,226.8,206z"/>
</svg>
