<?xml version="1.0" encoding="utf-8"?>
<!-- Generator: Adobe Illustrator 19.2.1, SVG Export Plug-In . SVG Version: 6.00 Build 0)  -->
<svg version="1.1" id="Calque_1" xmlns="http://www.w3.org/2000/svg" xmlns:xlink="http://www.w3.org/1999/xlink" x="0px" y="0px"
	 viewBox="0 0 283.5 283.5" style="enable-background:new 0 0 283.5 283.5;" xml:space="preserve">
<g>
	<path d="M211.4,178.2c-4.1,0-7.5-3.4-7.5-7.5v-38.6c0-4.1,3.4-7.5,7.5-7.5s7.5,3.4,7.5,7.5v38.6
		C218.9,174.8,215.5,178.2,211.4,178.2z"/>
	<path d="M114.7,197.5c-1.9,0-3.8-0.7-5.3-2.2c-10.2-10.2-16.2-30.3-16.1-53.8c0.1-23.4,6.1-43.4,16.1-53.4c2.9-2.9,7.7-2.9,10.6,0
		c2.9,2.9,2.9,7.7,0,10.6c-7.1,7.1-11.7,23.9-11.7,42.8c-0.1,19,4.5,36,11.7,43.2c2.9,2.9,2.9,7.7,0,10.6
		C118.5,196.8,116.6,197.5,114.7,197.5z"/>
	<path d="M114.7,255.5c-1.9,0-3.8-0.7-5.3-2.2C80.8,224.8,64.5,184,64.6,141.5c0.1-42.4,16.4-83,44.8-111.4c2.9-2.9,7.7-2.9,10.6,0
		c2.9,2.9,2.9,7.7,0,10.6C94.4,66.3,79.7,103,79.6,141.5c-0.1,38.6,14.7,75.5,40.4,101.2c2.9,2.9,2.9,7.7,0,10.6
		C118.5,254.8,116.6,255.5,114.7,255.5z"/>
	<path d="M211.4,216.9c-11.9,0-22.1-8.1-28.5-22.7c-5.1-11.5-7.9-26.9-7.9-43.1c0-16.2,2.8-31.3,7.9-42.7
		c6.5-14.5,16.6-22.4,28.6-22.4c4.1,0,7.5,3.4,7.5,7.5s-3.4,7.5-7.5,7.5c-7.3,0-12.1,7.4-14.9,13.6c-4.2,9.4-6.6,22.7-6.6,36.6
		c0,25,8,50.8,21.5,50.8c4.1,0,7.5,3.4,7.5,7.5S215.5,216.9,211.4,216.9z"/>
</g>
</svg>
