<?xml version="1.0" encoding="utf-8"?>
<!-- Generator: Adobe Illustrator 19.2.1, SVG Export Plug-In . SVG Version: 6.00 Build 0)  -->
<svg version="1.1" id="Calque_1" xmlns="http://www.w3.org/2000/svg" xmlns:xlink="http://www.w3.org/1999/xlink" x="0px" y="0px"
	 viewBox="0 0 283.5 283.5" style="enable-background:new 0 0 283.5 283.5;" xml:space="preserve">
<path d="M113.4,263c-2,0-4-0.8-5.5-2.3l-85-85c-3.1-3.1-3.1-8,0-11.1l85-85c3.1-3.1,8-3.1,11.1,0c3.1,3.1,3.1,8,0,11.1l-79.5,79.5
	l73.9,73.9l79.5-79.5c3.1-3.1,8-3.1,11.1,0c3.1,3.1,3.1,8,0,11.1l-85,85C117.4,262.2,115.4,263,113.4,263z"/>
<path d="M212.6,163.7c-2,0-4-0.8-5.5-2.3c-3.1-3.1-3.1-8,0-11.1c19.8-19.8,28-42.9,22.5-63.3c-4.4-16.4-16.8-28.8-33.1-33.2
	c-20.4-5.5-43.5,2.7-63.3,22.5c-3.1,3.1-8,3.1-11.1,0c-3.1-3.1-3.1-8,0-11.1c23.9-23.9,52.5-33.6,78.5-26.6
	c21.5,5.8,38.5,22.7,44.2,44.2c7,26-2.7,54.6-26.6,78.5C216.6,163,214.6,163.7,212.6,163.7z"/>
<path d="M113.4,234.6c-2,0-4-0.8-5.5-2.3l-56.7-56.7c-1.5-1.5-2.3-3.5-2.3-5.5s0.8-4.1,2.3-5.5L122,93.7c3.1-3.1,8-3.1,11.1,0
	c3.1,3.1,3.1,8,0,11.1l-65.3,65.3l45.6,45.6l65.3-65.3c3.1-3.1,8-3.1,11.1,0c3.1,3.1,3.1,8,0,11.1l-70.9,70.9
	C117.4,233.8,115.4,234.6,113.4,234.6z"/>
<path d="M198.4,149.6c-2,0-4-0.8-5.5-2.3l-56.7-56.7c-3.1-3.1-3.1-8,0-11.1c3.1-3.1,8-3.1,11.1,0l56.7,56.7c3.1,3.1,3.1,8,0,11.1
	C202.4,148.8,200.4,149.6,198.4,149.6z"/>
<path d="M212.6,135.4c-1.5,0-3-0.4-4.4-1.3c-3.6-2.4-4.5-7.3-2.1-10.9c9.6-14.2,9-32.7-1.5-44.1c-10.2-11.1-26.5-11.6-44.9-1.3
	c-3.8,2.1-8.6,0.8-10.7-3s-0.8-8.6,3-10.7c24.9-13.9,48.8-12.2,64.1,4.4c15.3,16.7,16.5,43.4,2.9,63.5
	C217.6,134.2,215.1,135.4,212.6,135.4z"/>
<g>
</g>
<g>
</g>
<g>
</g>
<g>
</g>
<g>
</g>
<g>
</g>
</svg>
