<?xml version="1.0" encoding="utf-8"?>
<!-- Generator: Adobe Illustrator 19.2.1, SVG Export Plug-In . SVG Version: 6.00 Build 0)  -->
<svg version="1.1" id="Calque_1" xmlns="http://www.w3.org/2000/svg" xmlns:xlink="http://www.w3.org/1999/xlink" x="0px" y="0px"
	 viewBox="0 0 283.5 283.5" style="enable-background:new 0 0 283.5 283.5;" xml:space="preserve">
<style type="text/css">
	.st0{fill:none;stroke:#000000;stroke-width:15.6852;stroke-linecap:round;stroke-linejoin:round;stroke-miterlimit:10;}
</style>
<path d="M28.3,234.6c-2,0-4-0.8-5.5-2.3c-3.1-3.1-3.1-8,0-11.1l70.9-70.9c3.1-3.1,8-3.1,11.1,0c3.1,3.1,3.1,8,0,11.1l-70.9,70.9
	C32.4,233.8,30.4,234.6,28.3,234.6z"/>
<path class="st0" d="M226.8,28.3"/>
<path class="st0" d="M255.1,56.7"/>
<path d="M56.7,263c-2,0-4-0.8-5.5-2.3c-3.1-3.1-3.1-8,0-11.1l70.9-70.9c3.1-3.1,8-3.1,11.1,0c3.1,3.1,3.1,8,0,11.1l-70.9,70.9
	C60.7,262.2,58.7,263,56.7,263z"/>
<path d="M155.9,107.1c-2,0-4-0.8-5.5-2.3c-3.1-3.1-3.1-8,0-11.1l70.9-70.9c3.1-3.1,8-3.1,11.1,0c3.1,3.1,3.1,8,0,11.1l-70.9,70.9
	C159.9,106.3,157.9,107.1,155.9,107.1z"/>
<path d="M184.3,135.4c-2,0-4-0.8-5.5-2.3c-3.1-3.1-3.1-8,0-11.1l70.9-70.9c3.1-3.1,8-3.1,11.1,0c3.1,3.1,3.1,8,0,11.1l-70.9,70.9
	C188.3,134.6,186.3,135.4,184.3,135.4z"/>
<path d="M226.8,263c-2,0-4-0.8-5.5-2.3l-70.9-70.9c-3.1-3.1-3.1-8,0-11.1c3.1-3.1,8-3.1,11.1,0l70.9,70.9c3.1,3.1,3.1,8,0,11.1
	C230.8,262.2,228.8,263,226.8,263z"/>
<path class="st0" d="M56.7,28.3"/>
<path d="M255.1,234.6c-2,0-4-0.8-5.5-2.3l-70.9-70.9c-3.1-3.1-3.1-8,0-11.1c3.1-3.1,8-3.1,11.1,0l70.9,70.9c3.1,3.1,3.1,8,0,11.1
	C259.1,233.8,257.1,234.6,255.1,234.6z"/>
<path d="M99.2,135.4c-2,0-4-0.8-5.5-2.3L22.8,62.2c-3.1-3.1-3.1-8,0-11.1c3.1-3.1,8-3.1,11.1,0l70.9,70.9c3.1,3.1,3.1,8,0,11.1
	C103.2,134.6,101.2,135.4,99.2,135.4z"/>
<path d="M127.6,107.1c-2,0-4-0.8-5.5-2.3L51.1,33.9c-3.1-3.1-3.1-8,0-11.1c3.1-3.1,8-3.1,11.1,0l70.9,70.9c3.1,3.1,3.1,8,0,11.1
	C131.6,106.3,129.6,107.1,127.6,107.1z"/>
<g>
</g>
<g>
</g>
<g>
</g>
<g>
</g>
<g>
</g>
<g>
</g>
</svg>
