<?xml version="1.0" encoding="utf-8"?>
<!-- Generator: Adobe Illustrator 19.2.1, SVG Export Plug-In . SVG Version: 6.00 Build 0)  -->
<svg version="1.1" id="Calque_1" xmlns="http://www.w3.org/2000/svg" xmlns:xlink="http://www.w3.org/1999/xlink" x="0px" y="0px"
	 viewBox="0 0 283.5 283.5" style="enable-background:new 0 0 283.5 283.5;" xml:space="preserve">
<style type="text/css">
	.st0{fill:none;stroke:#000000;stroke-width:15.6852;stroke-linecap:round;stroke-linejoin:round;stroke-miterlimit:10;}
</style>
<path d="M226.8,263H56.7c-4.3,0-7.8-3.5-7.8-7.8V28.3c0-4.3,3.5-7.8,7.8-7.8h113.4c4.3,0,7.8,3.5,7.8,7.8s-3.5,7.8-7.8,7.8H64.5
	v211.1h154.4V85c0-4.3,3.5-7.8,7.8-7.8s7.8,3.5,7.8,7.8v170.1C234.6,259.4,231.1,263,226.8,263z"/>
<path d="M198.4,92.9h-28.3c-4.3,0-7.8-3.5-7.8-7.8V56.7c0-4.3,3.5-7.8,7.8-7.8s7.8,3.5,7.8,7.8v20.5h20.5c4.3,0,7.8,3.5,7.8,7.8
	S202.8,92.9,198.4,92.9z"/>
<path d="M198.4,121.2h-56.7c-4.3,0-7.8-3.5-7.8-7.8V56.7c0-4.3,3.5-7.8,7.8-7.8c4.3,0,7.8,3.5,7.8,7.8v48.9h48.8
	c4.3,0,7.8,3.5,7.8,7.8S202.8,121.2,198.4,121.2z"/>
<path d="M198.4,234.6H85c-4.3,0-7.8-3.5-7.8-7.8V56.7c0-4.3,3.5-7.8,7.8-7.8h28.3c4.3,0,7.8,3.5,7.8,7.8s-3.5,7.8-7.8,7.8H92.9
	v154.4h97.7v-77.2c0-4.3,3.5-7.8,7.8-7.8s7.8,3.5,7.8,7.8v85C206.3,231.1,202.8,234.6,198.4,234.6z"/>
<path class="st0" d="M198.4,42.5"/>
<g>
</g>
<g>
</g>
<g>
</g>
<g>
</g>
<g>
</g>
<g>
</g>
</svg>
