<?xml version="1.0" encoding="utf-8"?>
<!-- Generator: Adobe Illustrator 19.2.1, SVG Export Plug-In . SVG Version: 6.00 Build 0)  -->
<svg version="1.1" id="Calque_1" xmlns="http://www.w3.org/2000/svg" xmlns:xlink="http://www.w3.org/1999/xlink" x="0px" y="0px"
	 viewBox="0 0 283.5 283.5" style="enable-background:new 0 0 283.5 283.5;" xml:space="preserve">
<path d="M85,216.3c-2.6,0-5.1-1.3-6.5-3.8c-2.1-3.6-0.8-8.2,2.8-10.2c6.4-3.7,10.4-10.7,10.4-18.1c0-11.5-9.3-20.8-20.8-20.8
	s-20.8,9.3-20.8,20.8c0,7.5,4,14.4,10.4,18.1c3.6,2.1,4.8,6.7,2.8,10.2s-6.7,4.8-10.2,2.8c-11.1-6.4-18-18.3-18-31.1
	c0-19.7,16.1-35.8,35.8-35.8s35.8,16.1,35.8,35.8c0,12.8-6.9,24.7-18,31.1C87.6,216,86.3,216.3,85,216.3z"/>
<path d="M28.3,262.6c-4.1,0-7.5-3.4-7.5-7.5v-42.5c0-4.1,3.4-7.5,7.5-7.5s7.5,3.4,7.5,7.5v42.5C35.8,259.2,32.4,262.6,28.3,262.6z"
	/>
<path d="M113.4,262.6c-4.1,0-7.5-3.4-7.5-7.5v-42.5c0-4.1,3.4-7.5,7.5-7.5s7.5,3.4,7.5,7.5v42.5
	C120.9,259.2,117.5,262.6,113.4,262.6z"/>
<path d="M226.8,216.3c-2.6,0-5.1-1.3-6.5-3.8c-2.1-3.6-0.8-8.2,2.8-10.2c6.4-3.7,10.4-10.7,10.4-18.1c0-11.5-9.3-20.8-20.8-20.8
	s-20.8,9.3-20.8,20.8c0,7.5,4,14.4,10.4,18.1c3.6,2.1,4.8,6.7,2.8,10.2c-2.1,3.6-6.7,4.8-10.2,2.8c-11.1-6.4-18-18.3-18-31.1
	c0-19.7,16.1-35.8,35.8-35.8s35.8,16.1,35.8,35.8c0,12.8-6.9,24.7-18,31.1C229.4,216,228.1,216.3,226.8,216.3z"/>
<path d="M170.1,262.6c-4.1,0-7.5-3.4-7.5-7.5v-42.5c0-4.1,3.4-7.5,7.5-7.5s7.5,3.4,7.5,7.5v42.5
	C177.6,259.2,174.2,262.6,170.1,262.6z"/>
<path d="M255.1,262.6c-4.1,0-7.5-3.4-7.5-7.5v-42.5c0-4.1,3.4-7.5,7.5-7.5s7.5,3.4,7.5,7.5v42.5
	C262.6,259.2,259.2,262.6,255.1,262.6z"/>
<path d="M56.7,88.8c-1.3,0-2.6-0.3-3.7-1c-11.1-6.4-18-18.3-18-31.1c0-19.8,16.1-35.9,35.9-35.9c19.7,0,35.8,16.1,35.8,35.8
	c0,12.8-6.9,24.7-18,31.1c-3.6,2.1-8.2,0.8-10.2-2.8c-2.1-3.6-0.8-8.2,2.8-10.2c6.4-3.7,10.4-10.7,10.4-18.1
	c0-11.5-9.3-20.8-20.8-20.8C59.4,35.8,50,45.2,50,56.7c0,7.5,4,14.4,10.4,18.1c3.6,2.1,4.8,6.7,2.8,10.2
	C61.8,87.5,59.3,88.8,56.7,88.8z"/>
<path d="M28.3,135.1c-4.1,0-7.5-3.4-7.5-7.5V85c0-4.1,3.4-7.5,7.5-7.5s7.5,3.4,7.5,7.5v42.6C35.8,131.7,32.4,135.1,28.3,135.1z"/>
<path d="M113.4,135.1c-4.1,0-7.5-3.4-7.5-7.5V85c0-4.1,3.4-7.5,7.5-7.5s7.5,3.4,7.5,7.5v42.6C120.9,131.7,117.5,135.1,113.4,135.1z"
	/>
<path d="M198.5,88.8c-1.3,0-2.6-0.3-3.7-1c-11.1-6.4-18-18.3-18-31.1c0-19.8,16.1-35.9,35.9-35.9c19.7,0,35.8,16.1,35.8,35.8
	c0,12.8-6.9,24.7-18,31.1c-3.6,2.1-8.2,0.8-10.2-2.8c-2.1-3.6-0.8-8.2,2.8-10.2c6.4-3.7,10.4-10.7,10.4-18.1
	c0-11.5-9.3-20.8-20.8-20.8c-11.5,0-20.9,9.4-20.9,20.9c0,7.5,4,14.4,10.4,18.1c3.6,2.1,4.8,6.7,2.8,10.2
	C203.6,87.5,201.1,88.8,198.5,88.8z"/>
<path d="M170.1,135.1c-4.1,0-7.5-3.4-7.5-7.5V85c0-4.1,3.4-7.5,7.5-7.5s7.5,3.4,7.5,7.5v42.6C177.6,131.7,174.2,135.1,170.1,135.1z"
	/>
<path d="M255.1,135.1c-4.1,0-7.5-3.4-7.5-7.5V85c0-4.1,3.4-7.5,7.5-7.5s7.5,3.4,7.5,7.5v42.6C262.6,131.7,259.2,135.1,255.1,135.1z"
	/>
<path d="M56.7,135.1c-4.1,0-7.5-3.4-7.5-7.5v-14.2c0-4.1,3.4-7.5,7.5-7.5s7.5,3.4,7.5,7.5v14.2C64.2,131.7,60.8,135.1,56.7,135.1z"
	/>
<path d="M85,135.1c-4.1,0-7.5-3.4-7.5-7.5v-14.2c0-4.1,3.4-7.5,7.5-7.5s7.5,3.4,7.5,7.5v14.2C92.5,131.7,89.1,135.1,85,135.1z"/>
<path d="M198.4,135.1c-4.1,0-7.5-3.4-7.5-7.5v-14.2c0-4.1,3.4-7.5,7.5-7.5s7.5,3.4,7.5,7.5v14.2
	C205.9,131.7,202.5,135.1,198.4,135.1z"/>
<path d="M226.8,135.1c-4.1,0-7.5-3.4-7.5-7.5v-14.2c0-4.1,3.4-7.5,7.5-7.5s7.5,3.4,7.5,7.5v14.2
	C234.3,131.7,230.9,135.1,226.8,135.1z"/>
<path d="M56.7,262.6c-4.1,0-7.5-3.4-7.5-7.5v-14.2c0-4.1,3.4-7.5,7.5-7.5s7.5,3.4,7.5,7.5v14.2C64.2,259.2,60.8,262.6,56.7,262.6z"
	/>
<path d="M85,262.6c-4.1,0-7.5-3.4-7.5-7.5v-14.2c0-4.1,3.4-7.5,7.5-7.5s7.5,3.4,7.5,7.5v14.2C92.5,259.2,89.1,262.6,85,262.6z"/>
<path d="M198.4,262.6c-4.1,0-7.5-3.4-7.5-7.5v-14.2c0-4.1,3.4-7.5,7.5-7.5s7.5,3.4,7.5,7.5v14.2
	C205.9,259.2,202.5,262.6,198.4,262.6z"/>
<path d="M226.8,262.6c-4.1,0-7.5-3.4-7.5-7.5v-14.2c0-4.1,3.4-7.5,7.5-7.5s7.5,3.4,7.5,7.5v14.2
	C234.3,259.2,230.9,262.6,226.8,262.6z"/>
</svg>
