<?xml version="1.0" encoding="utf-8"?>
<!-- Generator: Adobe Illustrator 19.2.1, SVG Export Plug-In . SVG Version: 6.00 Build 0)  -->
<svg version="1.1" id="Calque_1" xmlns="http://www.w3.org/2000/svg" xmlns:xlink="http://www.w3.org/1999/xlink" x="0px" y="0px"
	 viewBox="0 0 283.5 283.5" style="enable-background:new 0 0 283.5 283.5;" xml:space="preserve">
<path d="M28.3,263c-4.3,0-7.8-3.5-7.8-7.8V28.3c0-4.3,3.5-7.8,7.8-7.8s7.8,3.5,7.8,7.8v226.8C36.2,259.4,32.7,263,28.3,263z"/>
<path d="M85,263c-2.5,0-5-1.2-6.5-3.5c-2.4-3.6-1.4-8.5,2.2-10.9L241,141.7L80.7,34.9c-3.6-2.4-4.6-7.3-2.2-10.9
	c2.4-3.6,7.3-4.6,10.9-2.2l170.1,113.4c2.2,1.5,3.5,3.9,3.5,6.5s-1.3,5.1-3.5,6.5L89.4,261.6C88.1,262.5,86.5,263,85,263z"/>
<path d="M85,220.4c-2.6,0-5.2-1.3-6.7-3.7c-2.3-3.7-1.2-8.5,2.5-10.8l102.7-64.2L80.9,77.5c-3.7-2.3-4.8-7.1-2.5-10.8
	s7.1-4.8,10.8-2.5l113.4,70.9c2.3,1.4,3.7,3.9,3.7,6.7s-1.4,5.2-3.7,6.7L89.2,219.2C87.9,220.1,86.5,220.4,85,220.4z"/>
<path d="M56.7,263c-4.3,0-7.8-3.5-7.8-7.8V28.3c0-4.3,3.5-7.8,7.8-7.8s7.8,3.5,7.8,7.8v226.8C64.5,259.4,61,263,56.7,263z"/>
<g>
</g>
<g>
</g>
<g>
</g>
<g>
</g>
<g>
</g>
<g>
</g>
</svg>
