<?xml version="1.0" encoding="utf-8"?>
<!-- Generator: Adobe Illustrator 19.2.1, SVG Export Plug-In . SVG Version: 6.00 Build 0)  -->
<svg version="1.1" id="Calque_1" xmlns="http://www.w3.org/2000/svg" xmlns:xlink="http://www.w3.org/1999/xlink" x="0px" y="0px"
	 viewBox="0 0 283.5 283.5" style="enable-background:new 0 0 283.5 283.5;" xml:space="preserve">
<style type="text/css">
	.st0{fill:none;stroke:#000000;stroke-width:15;stroke-linecap:round;stroke-linejoin:round;stroke-miterlimit:10;}
</style>
<path class="st0" d="M56.7,141.7"/>
<path d="M198.4,149.3C198.4,149.3,198.4,149.3,198.4,149.3l-141.7-0.1c-4.1,0-7.5-3.4-7.5-7.5c0-4.1,3.4-7.5,7.5-7.5c0,0,0,0,0,0
	l141.7,0.1c4.1,0,7.5,3.4,7.5,7.5C205.9,145.9,202.6,149.3,198.4,149.3z"/>
<path d="M226.8,120.9H56.7c-4.1,0-7.5-3.4-7.5-7.5s3.4-7.5,7.5-7.5h170.1c4.1,0,7.5,3.4,7.5,7.5S230.9,120.9,226.8,120.9z"/>
<path d="M226.8,92.6H85c-4.1,0-7.5-3.4-7.5-7.5s3.4-7.5,7.5-7.5h141.7c4.1,0,7.5,3.4,7.5,7.5S230.9,92.6,226.8,92.6z"/>
<path d="M56.7,92.6c-4.1,0-7.5-3.4-7.5-7.5V56.7c0-4.1,3.4-7.5,7.5-7.5H85c4.1,0,7.5,3.4,7.5,7.5s-3.4,7.5-7.5,7.5H64.2v20.8
	C64.2,89.2,60.8,92.6,56.7,92.6z"/>
<path d="M226.8,206c-1.1,0-2.3-0.3-3.4-0.8l-56.7-28.3c-3.7-1.9-5.2-6.4-3.4-10.1c1.9-3.7,6.4-5.2,10.1-3.4l45.8,22.9v-16.2
	c0-4.1,3.4-7.5,7.5-7.5s7.5,3.4,7.5,7.5v28.3c0,2.6-1.3,5-3.6,6.4C229.5,205.6,228.1,206,226.8,206z"/>
<path d="M255.1,262.7c-1.3,0-2.7-0.4-3.9-1.1l-140-84h-83c-4.1,0-7.5-3.4-7.5-7.5V28.4c0-4.1,3.4-7.5,7.5-7.5h226.8
	c4.1,0,7.5,3.4,7.5,7.5v226.8c0,2.7-1.5,5.2-3.8,6.5C257.7,262.3,256.4,262.7,255.1,262.7z M35.8,162.6h77.5c1.4,0,2.7,0.4,3.9,1.1
	l130.4,78.2v-206H35.8V162.6z"/>
</svg>
