<?xml version="1.0" encoding="utf-8"?>
<!-- Generator: Adobe Illustrator 19.2.1, SVG Export Plug-In . SVG Version: 6.00 Build 0)  -->
<svg version="1.1" id="Calque_1" xmlns="http://www.w3.org/2000/svg" xmlns:xlink="http://www.w3.org/1999/xlink" x="0px" y="0px"
	 viewBox="0 0 283.5 283.5" style="enable-background:new 0 0 283.5 283.5;" xml:space="preserve">
<path d="M226.8,120.9c-4.1,0-7.5-3.4-7.5-7.5V35.9H64.2v77.5c0,4.1-3.4,7.5-7.5,7.5s-7.5-3.4-7.5-7.5v-85c0-4.1,3.4-7.5,7.5-7.5
	h170.1c4.1,0,7.5,3.4,7.5,7.5v85C234.3,117.6,230.9,120.9,226.8,120.9z"/>
<path d="M198.4,120.9c-4.1,0-7.5-3.4-7.5-7.5V64.2H92.5v49.2c0,4.1-3.4,7.5-7.5,7.5s-7.5-3.4-7.5-7.5V56.7c0-4.1,3.4-7.5,7.5-7.5
	h113.4c4.1,0,7.5,3.4,7.5,7.5v56.7C205.9,117.6,202.6,120.9,198.4,120.9z"/>
<path d="M85,262.7H28.3c-4.1,0-7.5-3.4-7.5-7.5V141.8c0-4.1,3.4-7.5,7.5-7.5H85c4.1,0,7.5,3.4,7.5,7.5s-3.4,7.5-7.5,7.5H35.8v98.4
	H85c4.1,0,7.5,3.4,7.5,7.5S89.2,262.7,85,262.7z"/>
<path d="M85,234.3H56.7c-4.1,0-7.5-3.4-7.5-7.5v-56.7c0-4.1,3.4-7.5,7.5-7.5H85c4.1,0,7.5,3.4,7.5,7.5s-3.4,7.5-7.5,7.5H64.2v41.7
	H85c4.1,0,7.5,3.4,7.5,7.5S89.2,234.3,85,234.3z"/>
<path d="M113.4,262.7c-4.1,0-7.5-3.4-7.5-7.5V141.8c0-4.1,3.4-7.5,7.5-7.5s7.5,3.4,7.5,7.5v113.4
	C120.9,259.3,117.5,262.7,113.4,262.7z"/>
<path d="M170.1,262.7c-4.1,0-7.5-3.4-7.5-7.5V141.8c0-4.1,3.4-7.5,7.5-7.5s7.5,3.4,7.5,7.5v113.4
	C177.6,259.3,174.2,262.7,170.1,262.7z"/>
<path d="M255.1,262.7h-56.7c-4.1,0-7.5-3.4-7.5-7.5s3.4-7.5,7.5-7.5h49.2v-98.4h-49.2c-4.1,0-7.5-3.4-7.5-7.5s3.4-7.5,7.5-7.5h56.7
	c4.1,0,7.5,3.4,7.5,7.5v113.4C262.6,259.3,259.3,262.7,255.1,262.7z"/>
<path d="M226.8,234.3h-28.3c-4.1,0-7.5-3.4-7.5-7.5s3.4-7.5,7.5-7.5h20.8v-41.7h-20.8c-4.1,0-7.5-3.4-7.5-7.5s3.4-7.5,7.5-7.5h28.3
	c4.1,0,7.5,3.4,7.5,7.5v56.7C234.3,230.9,230.9,234.3,226.8,234.3z"/>
</svg>
