<?xml version="1.0" encoding="utf-8"?>
<!-- Generator: Adobe Illustrator 19.2.1, SVG Export Plug-In . SVG Version: 6.00 Build 0)  -->
<svg version="1.1" id="Calque_1" xmlns="http://www.w3.org/2000/svg" xmlns:xlink="http://www.w3.org/1999/xlink" x="0px" y="0px"
	 viewBox="0 0 283.5 283.5" style="enable-background:new 0 0 283.5 283.5;" xml:space="preserve">
<path d="M170.1,64.2h-56.7c-4.1,0-7.5-3.4-7.5-7.5V28.4c0-4.1,3.4-7.5,7.5-7.5h56.7c4.1,0,7.5,3.4,7.5,7.5v28.3
	C177.6,60.9,174.2,64.2,170.1,64.2z M120.9,49.2h41.7V35.9h-41.7V49.2z"/>
<path d="M255.1,262.7H28.3c-4.1,0-7.5-3.4-7.5-7.5V42.6c0-4.1,3.4-7.5,7.5-7.5H85c4.1,0,7.5,3.4,7.5,7.5s-3.4,7.5-7.5,7.5H35.8
	v197.6h211.8V50.1h-49.2c-4.1,0-7.5-3.4-7.5-7.5s3.4-7.5,7.5-7.5h56.7c4.1,0,7.5,3.4,7.5,7.5v212.6
	C262.6,259.3,259.3,262.7,255.1,262.7z"/>
<path d="M226.8,92.6H56.7c-4.1,0-7.5-3.4-7.5-7.5s3.4-7.5,7.5-7.5h170.1c4.1,0,7.5,3.4,7.5,7.5S230.9,92.6,226.8,92.6z"/>
<path d="M226.8,120.9H56.7c-4.1,0-7.5-3.4-7.5-7.5s3.4-7.5,7.5-7.5h170.1c4.1,0,7.5,3.4,7.5,7.5S230.9,120.9,226.8,120.9z"/>
<path d="M226.8,149.3H56.7c-4.1,0-7.5-3.4-7.5-7.5s3.4-7.5,7.5-7.5h170.1c4.1,0,7.5,3.4,7.5,7.5S230.9,149.3,226.8,149.3z"/>
<path d="M226.8,177.6H56.7c-4.1,0-7.5-3.4-7.5-7.5s3.4-7.5,7.5-7.5h170.1c4.1,0,7.5,3.4,7.5,7.5S230.9,177.6,226.8,177.6z"/>
<path d="M226.8,206H56.7c-4.1,0-7.5-3.4-7.5-7.5s3.4-7.5,7.5-7.5h170.1c4.1,0,7.5,3.4,7.5,7.5S230.9,206,226.8,206z"/>
<path d="M226.8,234.3H56.7c-4.1,0-7.5-3.4-7.5-7.5s3.4-7.5,7.5-7.5h170.1c4.1,0,7.5,3.4,7.5,7.5S230.9,234.3,226.8,234.3z"/>
</svg>
