<?xml version="1.0" encoding="utf-8"?>
<!-- Generator: Adobe Illustrator 19.2.1, SVG Export Plug-In . SVG Version: 6.00 Build 0)  -->
<svg version="1.1" id="Calque_1" xmlns="http://www.w3.org/2000/svg" xmlns:xlink="http://www.w3.org/1999/xlink" x="0px" y="0px"
	 viewBox="0 0 283.5 283.5" style="enable-background:new 0 0 283.5 283.5;" xml:space="preserve">
<path d="M28.3,192.1c-4.3,0-7.8-3.5-7.8-7.8V70.9c0-4.3,3.5-7.8,7.8-7.8h42.5c2.1,0,4.1,0.8,5.5,2.3l26,26h138.5
	c4.3,0,7.8,3.5,7.8,7.8v28.3c0,4.3-3.5,7.8-7.8,7.8s-7.8-3.5-7.8-7.8v-20.5H99.2c-2.1,0-4.1-0.8-5.5-2.3l-26-26H36.2v105.5
	C36.2,188.6,32.7,192.1,28.3,192.1z"/>
<path d="M56.7,163.7c-4.3,0-7.8-3.5-7.8-7.8V99.2c0-3.2,1.9-6,4.8-7.2c2.9-1.2,6.3-0.5,8.5,1.7l26,26h124.3c4.3,0,7.8,3.5,7.8,7.8
	s-3.5,7.8-7.8,7.8H85c-2.1,0-4.1-0.8-5.5-2.3l-15-15v37.8C64.5,160.2,61,163.7,56.7,163.7z"/>
<path d="M198.4,220.4c-2,0-4-0.8-5.5-2.3c-3.1-3.1-3.1-8,0-11.1l43.3-43.3H88.3l-54.4,54.4c-3.1,3.1-8,3.1-11.1,0
	c-3.1-3.1-3.1-8,0-11.1l56.7-56.7c1.5-1.5,3.5-2.3,5.5-2.3h170.1c3.2,0,6,1.9,7.2,4.8s0.5,6.3-1.7,8.5L204,218.1
	C202.4,219.7,200.4,220.4,198.4,220.4z"/>
<path d="M155.9,220.4c-2,0-4-0.8-5.5-2.3c-3.1-3.1-3.1-8,0-11.1l15-15h-62.9l-26,26c-3.1,3.1-8,3.1-11.1,0c-3.1-3.1-3.1-8,0-11.1
	l28.3-28.3c1.5-1.5,3.5-2.3,5.5-2.3h85c3.2,0,6,1.9,7.2,4.8s0.5,6.3-1.7,8.5l-28.3,28.3C159.9,219.7,157.9,220.4,155.9,220.4z"/>
<g>
</g>
<g>
</g>
<g>
</g>
<g>
</g>
<g>
</g>
<g>
</g>
</svg>
