<?xml version="1.0" encoding="utf-8"?>
<!-- Generator: Adobe Illustrator 19.2.1, SVG Export Plug-In . SVG Version: 6.00 Build 0)  -->
<svg version="1.1" id="Calque_1" xmlns="http://www.w3.org/2000/svg" xmlns:xlink="http://www.w3.org/1999/xlink" x="0px" y="0px"
	 viewBox="0 0 283.5 283.5" style="enable-background:new 0 0 283.5 283.5;" xml:space="preserve">
<path d="M85,177.9c-2,0-4-0.8-5.5-2.3l-56.7-56.7c-3.1-3.1-3.1-8,0-11.1l56.7-56.7c3.1-3.1,8-3.1,11.1,0c3.1,3.1,3.1,8,0,11.1
	l-51.1,51.1l51.1,51.1c3.1,3.1,3.1,8,0,11.1C89.1,177.2,87,177.9,85,177.9z"/>
<path d="M85,135.4c-2,0-4-0.8-5.5-2.3l-14.2-14.2c-3.1-3.1-3.1-8,0-11.1l14.2-14.2c3.1-3.1,8-3.1,11.1,0c3.1,3.1,3.1,8,0,11.1
	l-8.6,8.6l8.6,8.6c3.1,3.1,3.1,8,0,11.1C89.1,134.6,87,135.4,85,135.4z"/>
<path d="M255.1,248.8c-4.3,0-7.8-3.5-7.8-7.8c0-80.1-53.8-133.9-133.9-133.9c-4.3,0-7.8-3.5-7.8-7.8s3.5-7.8,7.8-7.8
	c43.7,0,81.1,14.3,108.2,41.4c27.1,27.1,41.4,64.5,41.4,108.1C263,245.3,259.4,248.8,255.1,248.8z"/>
<path d="M226.8,248.8c-4.3,0-7.8-3.5-7.8-7.8c0-66.1-39.5-105.5-105.5-105.5c-4.3,0-7.8-3.5-7.8-7.8s3.5-7.8,7.8-7.8
	c36.5,0,67.1,11.3,88.5,32.6c21.4,21.4,32.8,52,32.8,88.7C234.6,245.3,231.1,248.8,226.8,248.8z"/>
<g>
</g>
<g>
</g>
<g>
</g>
<g>
</g>
<g>
</g>
<g>
</g>
</svg>
