<?xml version="1.0" encoding="utf-8"?>
<!-- Generator: Adobe Illustrator 19.2.1, SVG Export Plug-In . SVG Version: 6.00 Build 0)  -->
<svg version="1.1" id="Calque_1" xmlns="http://www.w3.org/2000/svg" xmlns:xlink="http://www.w3.org/1999/xlink" x="0px" y="0px"
	 viewBox="0 0 283.5 283.5" style="enable-background:new 0 0 283.5 283.5;" xml:space="preserve">
<style type="text/css">
	.st0{fill:none;stroke:#000000;stroke-width:15;stroke-linecap:round;stroke-linejoin:round;stroke-miterlimit:10;}
</style>
<path class="st0" d="M141.7,28.3"/>
<path class="st0" d="M255.1,141.7"/>
<path d="M141.7,163.4c-12,0-21.7-9.7-21.7-21.7s9.7-21.7,21.7-21.7c12,0,21.7,9.7,21.7,21.7S153.7,163.4,141.7,163.4z M141.7,135.1
	c-3.7,0-6.7,3-6.7,6.7c0,3.7,3,6.7,6.7,6.7s6.7-3,6.7-6.7C148.4,138.1,145.4,135.1,141.7,135.1z"/>
<path class="st0" d="M141.7,28.4"/>
<path d="M141.7,262.7c-66.7,0-120.9-54.2-120.9-120.9S75.1,20.9,141.7,20.9c4.1,0,7.5,3.4,7.5,7.5s-3.4,7.5-7.5,7.5
	c-58.4,0-105.9,47.5-105.9,105.9c0,58.4,47.5,105.9,105.9,105.9s105.9-47.5,105.9-105.9c0-4.1,3.4-7.5,7.5-7.5s7.5,3.4,7.5,7.5
	C262.6,208.4,208.4,262.7,141.7,262.7z"/>
<g>
	<line x1="184.3" y1="127.6" x2="226.8" y2="127.6"/>
	<path d="M226.8,135.1h-42.5c-4.1,0-7.5-3.4-7.5-7.5c0-4.1,3.4-7.5,7.5-7.5h42.5c4.1,0,7.5,3.4,7.5,7.5
		C234.3,131.7,230.9,135.1,226.8,135.1z"/>
</g>
<g>
	<line x1="184.3" y1="155.9" x2="226.8" y2="155.9"/>
	<path d="M226.8,163.4h-42.5c-4.1,0-7.5-3.4-7.5-7.5s3.4-7.5,7.5-7.5h42.5c4.1,0,7.5,3.4,7.5,7.5S230.9,163.4,226.8,163.4z"/>
</g>
<g>
	<line x1="155.9" y1="184.3" x2="155.9" y2="226.8"/>
	<path d="M155.9,234.3c-4.1,0-7.5-3.4-7.5-7.5v-42.5c0-4.1,3.4-7.5,7.5-7.5s7.5,3.4,7.5,7.5v42.5C163.4,230.9,160,234.3,155.9,234.3
		z"/>
</g>
<g>
	<line x1="127.6" y1="226.8" x2="127.6" y2="184.3"/>
	<path d="M127.6,234.3c-4.1,0-7.5-3.4-7.5-7.5v-42.5c0-4.1,3.4-7.5,7.5-7.5s7.5,3.4,7.5,7.5v42.5
		C135.1,230.9,131.7,234.3,127.6,234.3z"/>
</g>
<g>
	<line x1="155.9" y1="56.7" x2="155.9" y2="99.2"/>
	<path d="M155.9,106.7c-4.1,0-7.5-3.4-7.5-7.5V56.7c0-4.1,3.4-7.5,7.5-7.5s7.5,3.4,7.5,7.5v42.5C163.4,103.4,160,106.7,155.9,106.7z
		"/>
</g>
<g>
	<line x1="127.6" y1="99.2" x2="127.6" y2="56.7"/>
	<path d="M127.6,106.7c-4.1,0-7.5-3.4-7.5-7.5V56.7c0-4.1,3.4-7.5,7.5-7.5s7.5,3.4,7.5,7.5v42.5
		C135.1,103.4,131.7,106.7,127.6,106.7z"/>
</g>
<g>
	<line x1="99.2" y1="155.9" x2="56.7" y2="155.9"/>
	<path d="M99.2,163.4H56.7c-4.1,0-7.5-3.4-7.5-7.5s3.4-7.5,7.5-7.5h42.5c4.1,0,7.5,3.4,7.5,7.5S103.4,163.4,99.2,163.4z"/>
</g>
<g>
	<line x1="56.7" y1="127.6" x2="99.2" y2="127.6"/>
	<path d="M99.2,135.1H56.7c-4.1,0-7.5-3.4-7.5-7.5c0-4.1,3.4-7.5,7.5-7.5h42.5c4.1,0,7.5,3.4,7.5,7.5
		C106.7,131.7,103.4,135.1,99.2,135.1z"/>
</g>
</svg>
