<?xml version="1.0" encoding="utf-8"?>
<!-- Generator: Adobe Illustrator 19.2.1, SVG Export Plug-In . SVG Version: 6.00 Build 0)  -->
<svg version="1.1" id="Calque_1" xmlns="http://www.w3.org/2000/svg" xmlns:xlink="http://www.w3.org/1999/xlink" x="0px" y="0px"
	 viewBox="0 0 283.5 283.5" style="enable-background:new 0 0 283.5 283.5;" xml:space="preserve">
<path d="M86.4,206.4c-2,0-4-0.7-5.5-2.2l-58.3-57.1c-1.5-1.5-2.3-3.5-2.4-5.6c0-2.1,0.8-4.1,2.3-5.6l56.7-56.3c3.1-3.1,8-3,11.1,0
	c3.1,3.1,3,8,0,11.1l-51,50.6L91.8,193c3.1,3,3.1,8,0.1,11.1C90.4,205.7,88.4,206.4,86.4,206.4z"/>
<path d="M85.1,164.4c-2,0-4-0.8-5.5-2.3L65,147.5c-3-3-3.1-7.9-0.1-11l14.6-15c3-3.1,8-3.2,11.1-0.2c3.1,3,3.2,8,0.2,11.1l-9.2,9.5
	l9.1,9.1c3.1,3.1,3.1,8,0,11.1C89.1,163.6,87.1,164.4,85.1,164.4z"/>
<path d="M255.1,134.8H113.4c-4.3,0-7.8-3.5-7.8-7.8s3.5-7.8,7.8-7.8h141.7c4.3,0,7.8,3.5,7.8,7.8S259.4,134.8,255.1,134.8z"/>
<path d="M255.1,163.9H113.4c-4.3,0-7.8-3.5-7.8-7.8s3.5-7.8,7.8-7.8h141.7c4.3,0,7.8,3.5,7.8,7.8S259.4,163.9,255.1,163.9z"/>
<g>
</g>
<g>
</g>
<g>
</g>
<g>
</g>
<g>
</g>
<g>
</g>
</svg>
