<?xml version="1.0" encoding="utf-8"?>
<!-- Generator: Adobe Illustrator 19.2.1, SVG Export Plug-In . SVG Version: 6.00 Build 0)  -->
<svg version="1.1" id="Calque_1" xmlns="http://www.w3.org/2000/svg" xmlns:xlink="http://www.w3.org/1999/xlink" x="0px" y="0px"
	 viewBox="0 0 283.5 283.5" style="enable-background:new 0 0 283.5 283.5;" xml:space="preserve">
<path d="M198.4,263H85c-2.1,0-4.1-0.8-5.5-2.3L22.8,204c-3.1-3.1-3.1-8,0-11.1c3.1-3.1,8-3.1,11.1,0l54.4,54.4h106.9l54.4-54.4
	c3.1-3.1,8-3.1,11.1,0c3.1,3.1,3.1,8,0,11.1L204,260.7C202.5,262.1,200.5,263,198.4,263z"/>
<path d="M184.3,234.6h-85c-2.1,0-4.1-0.8-5.5-2.3L65.3,204c-3.1-3.1-3.1-8,0-11.1s8-3.1,11.1,0l26,26H181l26-26
	c3.1-3.1,8-3.1,11.1,0c3.1,3.1,3.1,8,0,11.1l-28.3,28.3C188.3,233.8,186.3,234.6,184.3,234.6z"/>
<path d="M141.7,206.3c-2,0-4-0.8-5.5-2.3l-56.7-56.7c-3.1-3.1-3.1-8,0-11.1c3.1-3.1,8-3.1,11.1,0l51.1,51.1l51.1-51.1
	c3.1-3.1,8-3.1,11.1,0c3.1,3.1,3.1,8,0,11.1L147.3,204C145.7,205.5,143.7,206.3,141.7,206.3z"/>
<path d="M141.7,177.9c-2,0-4-0.8-5.5-2.3l-28.3-28.3c-3.1-3.1-3.1-8,0-11.1c3.1-3.1,8-3.1,11.1,0l22.8,22.8l22.8-22.8
	c3.1-3.1,8-3.1,11.1,0c3.1,3.1,3.1,8,0,11.1l-28.3,28.3C145.7,177.2,143.7,177.9,141.7,177.9z"/>
<path d="M127.6,135.4c-4.3,0-7.8-3.5-7.8-7.8V28.3c0-4.3,3.5-7.8,7.8-7.8s7.8,3.5,7.8,7.8v99.2C135.4,131.9,131.9,135.4,127.6,135.4
	z"/>
<path d="M155.9,135.4c-4.3,0-7.8-3.5-7.8-7.8V28.3c0-4.3,3.5-7.8,7.8-7.8s7.8,3.5,7.8,7.8v99.2C163.7,131.9,160.2,135.4,155.9,135.4
	z"/>
<g>
</g>
<g>
</g>
<g>
</g>
<g>
</g>
<g>
</g>
<g>
</g>
</svg>
