<?xml version="1.0" encoding="utf-8"?>
<!-- Generator: Adobe Illustrator 19.2.1, SVG Export Plug-In . SVG Version: 6.00 Build 0)  -->
<svg version="1.1" id="Calque_1" xmlns="http://www.w3.org/2000/svg" xmlns:xlink="http://www.w3.org/1999/xlink" x="0px" y="0px"
	 viewBox="0 0 283.5 283.5" style="enable-background:new 0 0 283.5 283.5;" xml:space="preserve">
<path d="M198.4,177.9c-2,0-4-0.8-5.5-2.3c-3.1-3.1-3.1-8,0-11.1l51.1-51.1l-51.1-51.1c-3.1-3.1-3.1-8,0-11.1c3.1-3.1,8-3.1,11.1,0
	l56.7,56.7c1.5,1.5,2.3,3.5,2.3,5.5s-0.8,4.1-2.3,5.5L204,175.6C202.4,177.2,200.4,177.9,198.4,177.9z"/>
<path d="M198.4,135.4c-2,0-4-0.8-5.5-2.3c-3.1-3.1-3.1-8,0-11.1l8.6-8.6l-8.6-8.6c-3.1-3.1-3.1-8,0-11.1s8-3.1,11.1,0l14.2,14.2
	c1.5,1.5,2.3,3.5,2.3,5.5s-0.8,4.1-2.3,5.5L204,133.1C202.4,134.6,200.4,135.4,198.4,135.4z"/>
<path d="M28.3,248.8c-4.3,0-7.8-3.5-7.8-7.8c0-43.7,14.3-81.1,41.4-108.1c27.1-27.1,64.5-41.4,108.2-41.4c4.3,0,7.8,3.5,7.8,7.8
	s-3.5,7.8-7.8,7.8c-80.1,0-133.9,53.8-133.9,133.9C36.2,245.3,32.7,248.8,28.3,248.8z"/>
<path d="M56.7,248.8c-4.3,0-7.8-3.5-7.8-7.8c0-36.6,11.3-67.3,32.8-88.7c21.4-21.3,52-32.6,88.5-32.6c4.3,0,7.8,3.5,7.8,7.8
	s-3.5,7.8-7.8,7.8c-66.1,0-105.5,39.5-105.5,105.5C64.5,245.3,61,248.8,56.7,248.8z"/>
<g>
</g>
<g>
</g>
<g>
</g>
<g>
</g>
<g>
</g>
<g>
</g>
</svg>
