<?xml version="1.0" encoding="utf-8"?>
<!-- Generator: Adobe Illustrator 19.2.1, SVG Export Plug-In . SVG Version: 6.00 Build 0)  -->
<svg version="1.1" id="Calque_1" xmlns="http://www.w3.org/2000/svg" xmlns:xlink="http://www.w3.org/1999/xlink" x="0px" y="0px"
	 viewBox="0 0 283.5 283.5" style="enable-background:new 0 0 283.5 283.5;" xml:space="preserve">
<style type="text/css">
	.st0{fill:none;stroke:#000000;stroke-width:15.6852;stroke-linecap:round;stroke-linejoin:round;stroke-miterlimit:10;}
</style>
<path d="M198.4,263H85c-3.7,0-7-2.6-7.7-6.3L49,114.9c-0.8-4.2,1.9-8.4,6.2-9.2c4.2-0.8,8.4,1.9,9.2,6.2l27.1,135.4H192l27.1-135.4
	c0.8-4.2,5-7,9.2-6.2c4.2,0.8,7,5,6.2,9.2l-28.3,141.7C205.4,260.3,202.2,263,198.4,263z"/>
<path d="M255.1,92.9H28.3c-4.3,0-7.8-3.5-7.8-7.8s3.5-7.8,7.8-7.8h226.8c4.3,0,7.8,3.5,7.8,7.8S259.4,92.9,255.1,92.9z"/>
<path d="M170.1,64.5c-4.3,0-7.8-3.5-7.8-7.8V36.2h-41v20.5c0,4.3-3.5,7.8-7.8,7.8s-7.8-3.5-7.8-7.8V28.3c0-4.3,3.5-7.8,7.8-7.8h56.7
	c4.3,0,7.8,3.5,7.8,7.8v28.3C177.9,61,174.4,64.5,170.1,64.5z"/>
<path class="st0" d="M141.7,56.7"/>
<path d="M170.1,234.6h-56.7c-3.6,0-6.7-2.4-7.6-5.9L77.4,115.3c-1.1-4.2,1.5-8.5,5.7-9.5c4.2-1,8.5,1.5,9.5,5.7l26.9,107.4H164
	l26.9-107.4c1-4.2,5.3-6.8,9.5-5.7c4.2,1.1,6.8,5.3,5.7,9.5l-28.3,113.4C176.8,232.2,173.7,234.6,170.1,234.6z"/>
<path d="M170.1,121.2h-56.7c-4.3,0-7.8-3.5-7.8-7.8s3.5-7.8,7.8-7.8h56.7c4.3,0,7.8,3.5,7.8,7.8S174.4,121.2,170.1,121.2z"/>
<path d="M142.7,65c-4.3,0-7.8-3.5-7.8-7.8v-2.8c0-4.3,3.5-7.8,7.8-7.8c4.3,0,7.8,3.5,7.8,7.8v2.8C150.6,61.4,147.1,65,142.7,65z"/>
<g>
</g>
<g>
</g>
<g>
</g>
<g>
</g>
<g>
</g>
<g>
</g>
</svg>
