<?xml version="1.0" encoding="utf-8"?>
<!-- Generator: Adobe Illustrator 19.2.1, SVG Export Plug-In . SVG Version: 6.00 Build 0)  -->
<svg version="1.1" id="Calque_1" xmlns="http://www.w3.org/2000/svg" xmlns:xlink="http://www.w3.org/1999/xlink" x="0px" y="0px"
	 viewBox="0 0 283.5 283.5" style="enable-background:new 0 0 283.5 283.5;" xml:space="preserve">
<style type="text/css">
	.st0{fill:#010202;}
</style>
<path class="st0" d="M141.7,269.3c-2,0-4-0.8-5.5-2.3l-56.7-56.7c-3.1-3.1-3.1-8,0-11.1s8-3.1,11.1,0l51.1,51.1l51.1-51.1
	c3.1-3.1,8-3.1,11.1,0s3.1,8,0,11.1L147.3,267C145.7,268.5,143.7,269.3,141.7,269.3z"/>
<path class="st0" d="M141.7,240.9c-2,0-4-0.8-5.5-2.3l-28.3-28.3c-3.1-3.1-3.1-8,0-11.1s8-3.1,11.1,0l22.8,22.8l22.8-22.8
	c3.1-3.1,8-3.1,11.1,0s3.1,8,0,11.1l-28.3,28.3C145.7,240.2,143.7,240.9,141.7,240.9z"/>
<path class="st0" d="M127.6,198.4c-4.3,0-7.8-3.5-7.8-7.8l0-162.2c0-4.3,3.5-7.8,7.8-7.8s7.8,3.5,7.8,7.8l0,162.1
	C135.4,194.9,131.9,198.4,127.6,198.4z"/>
<path class="st0" d="M155.9,198.4c-4.3,0-7.8-3.5-7.8-7.8l0-162.2c0-4.3,3.5-7.8,7.8-7.8s7.8,3.5,7.8,7.8l0,162.1
	C163.7,194.9,160.2,198.4,155.9,198.4z"/>
<g>
</g>
<g>
</g>
<g>
</g>
<g>
</g>
<g>
</g>
<g>
</g>
</svg>
