<?xml version="1.0" encoding="utf-8"?>
<!-- Generator: Adobe Illustrator 19.2.1, SVG Export Plug-In . SVG Version: 6.00 Build 0)  -->
<svg version="1.1" id="Calque_1" xmlns="http://www.w3.org/2000/svg" xmlns:xlink="http://www.w3.org/1999/xlink" x="0px" y="0px"
	 viewBox="0 0 283.5 283.5" style="enable-background:new 0 0 283.5 283.5;" xml:space="preserve">
<style type="text/css">
	.st0{fill:none;stroke:#000000;stroke-width:21.389;stroke-linecap:round;stroke-linejoin:round;stroke-miterlimit:10;}
</style>
<path class="st0" d="M113.4,226.8"/>
<path d="M127.6,35.9H70.9c-4.1,0-7.5-3.4-7.5-7.5s3.4-7.5,7.5-7.5h56.7c4.1,0,7.5,3.4,7.5,7.5S131.7,35.9,127.6,35.9z"/>
<path d="M212.6,35.9h-56.7c-4.1,0-7.5-3.4-7.5-7.5s3.4-7.5,7.5-7.5h56.7c4.1,0,7.5,3.4,7.5,7.5S216.7,35.9,212.6,35.9z"/>
<path d="M127.6,234.3c-4.1,0-7.5-3.4-7.5-7.5V56.7c0-4.1,3.4-7.5,7.5-7.5s7.5,3.4,7.5,7.5v170.1
	C135.1,230.9,131.7,234.3,127.6,234.3z"/>
<path d="M155.9,234.3c-4.1,0-7.5-3.4-7.5-7.5V56.7c0-4.1,3.4-7.5,7.5-7.5s7.5,3.4,7.5,7.5v170.1C163.4,230.9,160,234.3,155.9,234.3z
	"/>
<path d="M198.4,149.3h-14.2c-4.1,0-7.5-3.4-7.5-7.5s3.4-7.5,7.5-7.5h14.2c4.1,0,7.5,3.4,7.5,7.5S202.6,149.3,198.4,149.3z"/>
<path d="M99.2,149.3H85c-4.1,0-7.5-3.4-7.5-7.5s3.4-7.5,7.5-7.5h14.2c4.1,0,7.5,3.4,7.5,7.5S103.4,149.3,99.2,149.3z"/>
<path d="M127.6,262.7H70.9c-4.1,0-7.5-3.4-7.5-7.5s3.4-7.5,7.5-7.5h56.7c4.1,0,7.5,3.4,7.5,7.5S131.7,262.7,127.6,262.7z"/>
<path d="M212.6,262.7h-56.7c-4.1,0-7.5-3.4-7.5-7.5s3.4-7.5,7.5-7.5h56.7c4.1,0,7.5,3.4,7.5,7.5S216.7,262.7,212.6,262.7z"/>
</svg>
