<?xml version="1.0" encoding="utf-8"?>
<!-- Generator: Adobe Illustrator 19.2.1, SVG Export Plug-In . SVG Version: 6.00 Build 0)  -->
<svg version="1.1" id="Calque_1" xmlns="http://www.w3.org/2000/svg" xmlns:xlink="http://www.w3.org/1999/xlink" x="0px" y="0px"
	 viewBox="0 0 283.5 283.5" style="enable-background:new 0 0 283.5 283.5;" xml:space="preserve">
<path d="M70.9,64.2H42.5c-4.1,0-7.5-3.4-7.5-7.5s3.4-7.5,7.5-7.5h28.3c4.1,0,7.5,3.4,7.5,7.5S75,64.2,70.9,64.2z"/>
<path d="M70.9,35.9H42.5c-4.1,0-7.5-3.4-7.5-7.5s3.4-7.5,7.5-7.5h28.3c4.1,0,7.5,3.4,7.5,7.5S75,35.9,70.9,35.9z"/>
<path d="M127.6,64.2H99.2c-4.1,0-7.5-3.4-7.5-7.5s3.4-7.5,7.5-7.5h28.3c4.1,0,7.5,3.4,7.5,7.5S131.7,64.2,127.6,64.2z"/>
<path d="M127.6,35.9H99.2c-4.1,0-7.5-3.4-7.5-7.5s3.4-7.5,7.5-7.5h28.3c4.1,0,7.5,3.4,7.5,7.5S131.7,35.9,127.6,35.9z"/>
<path d="M184.3,64.2h-28.3c-4.1,0-7.5-3.4-7.5-7.5s3.4-7.5,7.5-7.5h28.3c4.1,0,7.5,3.4,7.5,7.5S188.4,64.2,184.3,64.2z"/>
<path d="M184.3,35.9h-28.3c-4.1,0-7.5-3.4-7.5-7.5s3.4-7.5,7.5-7.5h28.3c4.1,0,7.5,3.4,7.5,7.5S188.4,35.9,184.3,35.9z"/>
<path d="M240.9,64.2h-28.3c-4.1,0-7.5-3.4-7.5-7.5s3.4-7.5,7.5-7.5h28.3c4.1,0,7.5,3.4,7.5,7.5S245.1,64.2,240.9,64.2z"/>
<path d="M240.9,35.9h-28.3c-4.1,0-7.5-3.4-7.5-7.5s3.4-7.5,7.5-7.5h28.3c4.1,0,7.5,3.4,7.5,7.5S245.1,35.9,240.9,35.9z"/>
<path d="M70.9,262.7H42.5c-4.1,0-7.5-3.4-7.5-7.5s3.4-7.5,7.5-7.5h28.3c4.1,0,7.5,3.4,7.5,7.5S75,262.7,70.9,262.7z"/>
<path d="M70.9,234.3H42.5c-4.1,0-7.5-3.4-7.5-7.5s3.4-7.5,7.5-7.5h28.3c4.1,0,7.5,3.4,7.5,7.5S75,234.3,70.9,234.3z"/>
<path d="M127.6,262.7H99.2c-4.1,0-7.5-3.4-7.5-7.5s3.4-7.5,7.5-7.5h28.3c4.1,0,7.5,3.4,7.5,7.5S131.7,262.7,127.6,262.7z"/>
<path d="M127.6,234.3H99.2c-4.1,0-7.5-3.4-7.5-7.5s3.4-7.5,7.5-7.5h28.3c4.1,0,7.5,3.4,7.5,7.5S131.7,234.3,127.6,234.3z"/>
<path d="M184.3,262.7h-28.3c-4.1,0-7.5-3.4-7.5-7.5s3.4-7.5,7.5-7.5h28.3c4.1,0,7.5,3.4,7.5,7.5S188.4,262.7,184.3,262.7z"/>
<path d="M184.3,234.3h-28.3c-4.1,0-7.5-3.4-7.5-7.5s3.4-7.5,7.5-7.5h28.3c4.1,0,7.5,3.4,7.5,7.5S188.4,234.3,184.3,234.3z"/>
<path d="M240.9,262.7h-28.3c-4.1,0-7.5-3.4-7.5-7.5s3.4-7.5,7.5-7.5h28.3c4.1,0,7.5,3.4,7.5,7.5S245.1,262.7,240.9,262.7z"/>
<path d="M240.9,234.3h-28.3c-4.1,0-7.5-3.4-7.5-7.5s3.4-7.5,7.5-7.5h28.3c4.1,0,7.5,3.4,7.5,7.5S245.1,234.3,240.9,234.3z"/>
<path d="M99.2,191.8c-4.1,0-7.5-3.4-7.5-7.5v-85c0-4.1,3.4-7.5,7.5-7.5s7.5,3.4,7.5,7.5v85C106.7,188.4,103.4,191.8,99.2,191.8z"/>
<path d="M127.6,191.8c-4.1,0-7.5-3.4-7.5-7.5v-85c0-4.1,3.4-7.5,7.5-7.5s7.5,3.4,7.5,7.5v85C135.1,188.4,131.7,191.8,127.6,191.8z"
	/>
<path d="M155.9,163.4c-1.9,0-3.8-0.7-5.3-2.2c-2.9-2.9-2.9-7.7,0-10.6l8.9-8.9l-8.9-8.9c-2.9-2.9-2.9-7.7,0-10.6
	c2.9-2.9,7.7-2.9,10.6,0l14.2,14.2c1.4,1.4,2.2,3.3,2.2,5.3c0,2-0.8,3.9-2.2,5.3l-14.2,14.2C159.7,162.7,157.8,163.4,155.9,163.4z"
	/>
<path d="M170.1,191.8c-1.9,0-3.8-0.7-5.3-2.2c-2.9-2.9-2.9-7.7,0-10.6l37.2-37.2l-37.2-37.2c-2.9-2.9-2.9-7.7,0-10.6
	c2.9-2.9,7.7-2.9,10.6,0l42.5,42.5c2.9,2.9,2.9,7.7,0,10.6l-42.5,42.5C173.9,191.1,172,191.8,170.1,191.8z"/>
</svg>
