<?xml version="1.0" encoding="utf-8"?>
<!-- Generator: Adobe Illustrator 19.2.1, SVG Export Plug-In . SVG Version: 6.00 Build 0)  -->
<svg version="1.1" id="Calque_1" xmlns="http://www.w3.org/2000/svg" xmlns:xlink="http://www.w3.org/1999/xlink" x="0px" y="0px"
	 viewBox="0 0 283.5 283.5" style="enable-background:new 0 0 283.5 283.5;" xml:space="preserve">
<style type="text/css">
	.st0{fill:none;stroke:#000000;stroke-width:21.389;stroke-linecap:round;stroke-linejoin:round;stroke-miterlimit:10;}
	.st1{fill:none;stroke:#000000;stroke-width:15;stroke-linecap:round;stroke-linejoin:round;stroke-miterlimit:10;}
</style>
<path class="st0" d="M198.4,141.7"/>
<path class="st0" d="M141.7,85"/>
<path d="M28.3,234.3c-1.9,0-3.8-0.7-5.3-2.2c-2.9-2.9-2.9-7.7,0-10.6l113.4-113.4c2.9-2.9,7.7-2.9,10.6,0c2.9,2.9,2.9,7.7,0,10.6
	L33.6,232.1C32.2,233.6,30.3,234.3,28.3,234.3z"/>
<path d="M56.7,262.7c-1.9,0-3.8-0.7-5.3-2.2c-2.9-2.9-2.9-7.7,0-10.6l113.4-113.4c2.9-2.9,7.7-2.9,10.6,0c2.9,2.9,2.9,7.7,0,10.6
	L62,260.5C60.5,261.9,58.6,262.7,56.7,262.7z"/>
<path class="st1" d="M198.4,141.7"/>
<path d="M198.4,120.9c-19.8,0-35.8-16.1-35.8-35.8c0-19.8,16.1-35.8,35.8-35.8s35.8,16.1,35.8,35.8
	C234.3,104.8,218.2,120.9,198.4,120.9z M198.4,64.2c-11.5,0-20.8,9.4-20.8,20.8c0,11.5,9.4,20.8,20.8,20.8
	c11.5,0,20.8-9.4,20.8-20.8C219.3,73.6,209.9,64.2,198.4,64.2z"/>
<path d="M198.4,149.3c-4.1,0-7.5-3.4-7.5-7.5s3.4-7.5,7.5-7.5c27.1,0,49.2-22.1,49.2-49.2s-22.1-49.2-49.2-49.2
	s-49.2,22.1-49.2,49.2c0,4.1-3.4,7.5-7.5,7.5c-4.1,0-7.5-3.4-7.5-7.5c0-35.4,28.8-64.2,64.2-64.2c35.4,0,64.2,28.8,64.2,64.2
	S233.8,149.3,198.4,149.3z"/>
</svg>
